<svg xmlns="http://www.w3.org/2000/svg" width="1200" height="800" viewBox="0 0 1200 800">
<rect x="0" y="0" width="600" height="800" rx="0" fill="#F8FAFC" />
<rect x="600" y="0" width="600" height="800" rx="0" fill="#FFFFFF" />
<line x1="600" y1="80" x2="600" y2="720" stroke="#E5E7EB" stroke-width="6" />
<rect x="250" y="240" width="100" height="260" rx="50" fill="#7C3AED" />
<polygon points="300,160 230,250 370,250" fill="#A78BFA" />
<circle cx="300" cy="330" r="30" fill="#FCD34D" />
<polygon points="250,440 200,520 250,520" fill="#A78BFA" />
<polygon points="350,440 350,520 400,520" fill="#A78BFA" />
<polygon points="300,500 270,560 330,560" fill="#FCD34D" />
<rect x="850" y="240" width="100" height="260" rx="50" fill="none" stroke="#1F2937" stroke-width="4" />
<polygon points="900,160 830,250 970,250" fill="none" stroke="#1F2937" stroke-width="4" />
<circle cx="900" cy="330" r="30" fill="none" stroke="#1F2937" stroke-width="4" />
<polygon points="850,440 800,520 850,520" fill="none" stroke="#1F2937" stroke-width="4" />
<polygon points="950,440 950,520 1000,520" fill="none" stroke="#1F2937" stroke-width="4" />
<polygon points="900,500 870,560 930,560" fill="none" stroke="#1F2937" stroke-width="4" />
</svg>