<svg xmlns="http://www.w3.org/2000/svg" width="1200" height="800" viewBox="0 0 1200 800">
<rect x="0" y="0" width="600" height="800" rx="0" fill="#F8FAFC" />
<rect x="600" y="0" width="600" height="800" rx="0" fill="#FFFFFF" />
<line x1="600" y1="80" x2="600" y2="720" stroke="#E5E7EB" stroke-width="6" />
<ellipse cx="300" cy="460" rx="140" ry="90" fill="#10B981" />
<circle cx="300" cy="290" r="95" fill="#6EE7B7" />
<polygon points="240,220 210,160 270,190" fill="#6EE7B7" />
<polygon points="360,220 390,160 330,190" fill="#6EE7B7" />
<circle cx="270" cy="275" r="12" fill="#F472B6" />
<circle cx="330" cy="275" r="12" fill="#F472B6" />
<ellipse cx="300" cy="330" rx="30" ry="18" fill="#F472B6" />
<line x1="300" y1="348" x2="300" y2="365" stroke="#1F2937" stroke-width="4" />
<circle cx="240" cy="530" r="22" fill="#6EE7B7" />
<circle cx="360" cy="530" r="22" fill="#6EE7B7" />
<ellipse cx="900" cy="460" rx="140" ry="90" fill="none" stroke="#1F2937" stroke-width="4" />
<circle cx="900" cy="290" r="95" fill="none" stroke="#1F2937" stroke-width="4" />
<polygon points="840,220 810,160 870,190" fill="none" stroke="#1F2937" stroke-width="4" />
<polygon points="960,220 990,160 930,190" fill="none" stroke="#1F2937" stroke-width="4" />
<circle cx="870" cy="275" r="12" fill="none" stroke="#1F2937" stroke-width="4" />
<circle cx="930" cy="275" r="12" fill="none" stroke="#1F2937" stroke-width="4" />
<ellipse cx="900" cy="330" rx="30" ry="18" fill="none" stroke="#1F2937" stroke-width="4" />
<line x1="900" y1="348" x2="900" y2="365" stroke="#1F2937" stroke-width="4" />
<circle cx="840" cy="530" r="22" fill="none" stroke="#1F2937" stroke-width="4" />
<circle cx="960" cy="530" r="22" fill="none" stroke="#1F2937" stroke-width="4" />
</svg>